<?xml version="1.1" encoding="UTF-8"?>
<svg xmlns="http://www.w3.org/2000/svg"
    xmlns:latexdraw="http://latexdraw.sourceforge.net/namespaces/latexdraw"
    version="1.1" baseProfile="full">
    <g>
        <g latexdraw:type="dot" id="id1301249707" latexdraw:size="20.0"
            latexdraw:dotShape="*" latexdraw:position="280.0 180.0">
            <path
                d="M 289.2307692307692 180.0 C 289.2307692307692 185.09801307536117 285.09801307536117 189.23076923076923 280.0 189.23076923076923 C 274.90198692463883 189.23076923076923 270.7692307692308 185.09801307536117 270.7692307692308 180.0 C 270.7692307692308 174.90198692463883 274.90198692463883 170.76923076923077 280.0 170.76923076923077 C 285.09801307536117 170.76923076923077 289.2307692307692 174.90198692463883 289.2307692307692 180.0 z "
                fill="black" stroke-linecap="square"
                stroke-linejoin="butt" stroke-width="1.25"
                stroke-miterlimit="10.0" stroke-dashoffset="0.0" stroke="black"/>
        </g>
        <g latexdraw:type="dot" id="id355121492" latexdraw:size="20.0"
            latexdraw:dotShape="*" latexdraw:position="460.0 260.0">
            <path
                d="M 469.2307692307692 260.0 C 469.2307692307692 265.09801307536117 465.09801307536117 269.2307692307692 460.0 269.2307692307692 C 454.90198692463883 269.2307692307692 450.7692307692308 265.09801307536117 450.7692307692308 260.0 C 450.7692307692308 254.90198692463883 454.90198692463883 250.76923076923077 460.0 250.76923076923077 C 465.09801307536117 250.76923076923077 469.2307692307692 254.90198692463883 469.2307692307692 260.0 z "
                fill="black" stroke-linecap="square"
                stroke-linejoin="butt" stroke-width="1.25"
                stroke-miterlimit="10.0" stroke-dashoffset="0.0" stroke="black"/>
        </g>
        <g latexdraw:type="dot" id="id742661394" latexdraw:size="20.0"
            latexdraw:dotShape="*" latexdraw:position="700.0 340.0">
            <path
                d="M 709.2307692307692 340.0 C 709.2307692307692 345.09801307536117 705.0980130753611 349.2307692307692 700.0 349.2307692307692 C 694.9019869246388 349.2307692307692 690.7692307692307 345.09801307536117 690.7692307692307 340.0 C 690.7692307692307 334.90198692463883 694.9019869246388 330.7692307692308 700.0 330.7692307692308 C 705.0980130753611 330.7692307692308 709.2307692307692 334.90198692463883 709.2307692307692 340.0 z "
                fill="black" stroke-linecap="square"
                stroke-linejoin="butt" stroke-width="1.25"
                stroke-miterlimit="10.0" stroke-dashoffset="0.0" stroke="black"/>
        </g>
        <g latexdraw:type="dot" id="id1626497384" latexdraw:size="20.0"
            latexdraw:dotShape="*" latexdraw:position="780.0 420.0">
            <path
                d="M 789.2307692307692 420.0 C 789.2307692307692 425.09801307536117 785.0980130753611 429.2307692307692 780.0 429.2307692307692 C 774.9019869246388 429.2307692307692 770.7692307692307 425.09801307536117 770.7692307692307 420.0 C 770.7692307692307 414.90198692463883 774.9019869246388 410.7692307692308 780.0 410.7692307692308 C 785.0980130753611 410.7692307692308 789.2307692307692 414.90198692463883 789.2307692307692 420.0 z "
                fill="black" stroke-linecap="square"
                stroke-linejoin="butt" stroke-width="1.25"
                stroke-miterlimit="10.0" stroke-dashoffset="0.0" stroke="black"/>
        </g>
        <g latexdraw:type="dot" id="id882141059" latexdraw:size="20.0"
            latexdraw:dotShape="*" latexdraw:position="860.0 500.0">
            <path
                d="M 869.2307692307692 500.0 C 869.2307692307692 505.09801307536117 865.0980130753611 509.2307692307692 860.0 509.2307692307692 C 854.9019869246388 509.2307692307692 850.7692307692307 505.09801307536117 850.7692307692307 500.0 C 850.7692307692307 494.90198692463883 854.9019869246388 490.7692307692308 860.0 490.7692307692308 C 865.0980130753611 490.7692307692308 869.2307692307692 494.90198692463883 869.2307692307692 500.0 z "
                fill="black" stroke-linecap="square"
                stroke-linejoin="butt" stroke-width="1.25"
                stroke-miterlimit="10.0" stroke-dashoffset="0.0" stroke="black"/>
        </g>
        <g latexdraw:type="text" id="id1765760377" fill="black" latexdraw:position="bl">
            <text x="840.0" y="540.0">5, 0</text>
        </g>
        <g latexdraw:type="circle" id="id2113968034">
            <circle cx="860.0" cy="500.0" r="19.0"
                latexdraw:borderPos="outer" stroke-width="2.0"
                stroke="black" fill="none"/>
        </g>
        <g latexdraw:type="joinedLines" id="id1533922526">
            <polyline points="700.0,340.0 680.0,340.0 "
                stroke-width="2.0" stroke="black" latexdraw:rotationAngle="0.0"/>
        </g>
        <g latexdraw:type="joinedLines" id="id846050671">
            <polyline points="280.0,180.0 260.0,180.0 "
                stroke-width="2.0" stroke="black" latexdraw:rotationAngle="0.0"/>
        </g>
        <g latexdraw:type="joinedLines" id="id34667460">
            <polyline points="280.0,180.0 460.0,260.0 "
                stroke-width="2.0" stroke="black" latexdraw:rotationAngle="0.0"/>
        </g>
        <g latexdraw:type="joinedLines" id="id1099797959">
            <polyline points="460.0,260.0 700.0,340.0 "
                stroke-width="2.0" stroke="black" latexdraw:rotationAngle="0.0"/>
        </g>
        <g latexdraw:type="joinedLines" id="id92250750">
            <polyline points="700.0,340.0 780.0,420.0 "
                stroke-width="2.0" stroke="black" latexdraw:rotationAngle="0.0"/>
        </g>
        <g latexdraw:type="joinedLines" id="id313714638">
            <polyline points="780.0,420.0 860.0,500.0 "
                stroke-width="2.0" stroke="black" latexdraw:rotationAngle="0.0"/>
        </g>
        <g latexdraw:type="dot" id="id1326206399" latexdraw:size="20.0"
            latexdraw:dotShape="*" latexdraw:position="720.0 500.0">
            <path
                d="M 729.2307692307692 500.0 C 729.2307692307692 505.09801307536117 725.0980130753611 509.2307692307692 720.0 509.2307692307692 C 714.9019869246388 509.2307692307692 710.7692307692307 505.09801307536117 710.7692307692307 500.0 C 710.7692307692307 494.90198692463883 714.9019869246388 490.7692307692308 720.0 490.7692307692308 C 725.0980130753611 490.7692307692308 729.2307692307692 494.90198692463883 729.2307692307692 500.0 z "
                fill="black" stroke-linecap="square"
                stroke-linejoin="butt" stroke-width="1.25"
                stroke-miterlimit="10.0" stroke-dashoffset="0.0" stroke="black"/>
        </g>
        <g latexdraw:type="joinedLines" id="id370636225">
            <polyline points="720.0,500.0 700.0,500.0 "
                stroke-width="2.0" stroke="black" latexdraw:rotationAngle="0.0"/>
        </g>
        <g latexdraw:type="joinedLines" id="id1327298886">
            <polyline points="780.0,420.0 720.0,500.0 "
                stroke-width="2.0" stroke="black" latexdraw:rotationAngle="0.0"/>
        </g>
        <g latexdraw:type="dot" id="id34729126" latexdraw:size="20.0"
            latexdraw:dotShape="*" latexdraw:position="680.0 580.0">
            <path
                d="M 689.2307692307692 580.0 C 689.2307692307692 585.0980130753611 685.0980130753611 589.2307692307692 680.0 589.2307692307692 C 674.9019869246388 589.2307692307692 670.7692307692307 585.0980130753611 670.7692307692307 580.0 C 670.7692307692307 574.9019869246388 674.9019869246388 570.7692307692307 680.0 570.7692307692307 C 685.0980130753611 570.7692307692307 689.2307692307692 574.9019869246388 689.2307692307692 580.0 z "
                fill="black" stroke-linecap="square"
                stroke-linejoin="butt" stroke-width="1.25"
                stroke-miterlimit="10.0" stroke-dashoffset="0.0" stroke="black"/>
        </g>
        <g latexdraw:type="joinedLines" id="id1238673097">
            <polyline
                points="720.0,500.0 680.0000000000001,580.0000000000001 "
                stroke-width="2.0" stroke="black" latexdraw:rotationAngle="0.0"/>
        </g>
        <g latexdraw:type="joinedLines" id="id1119984121">
            <polyline points="680.0,580.0 720.0,660.0 "
                stroke-width="2.0" stroke="black" latexdraw:rotationAngle="0.0"/>
        </g>
        <g latexdraw:type="dot" id="id452607894" latexdraw:size="20.0"
            latexdraw:dotShape="*" latexdraw:position="720.0 660.0">
            <path
                d="M 729.2307692307692 660.0 C 729.2307692307692 665.0980130753611 725.0980130753611 669.2307692307692 720.0 669.2307692307692 C 714.9019869246388 669.2307692307692 710.7692307692307 665.0980130753611 710.7692307692307 660.0 C 710.7692307692307 654.9019869246388 714.9019869246388 650.7692307692307 720.0 650.7692307692307 C 725.0980130753611 650.7692307692307 729.2307692307692 654.9019869246388 729.2307692307692 660.0 z "
                fill="black" stroke-linecap="square"
                stroke-linejoin="butt" stroke-width="1.25"
                stroke-miterlimit="10.0" stroke-dashoffset="0.0" stroke="black"/>
        </g>
        <g latexdraw:type="text" id="id227001199" fill="black" latexdraw:position="bl">
            <text x="700.0" y="700.0">0, 3</text>
        </g>
        <g latexdraw:type="dot" id="id1187666886" latexdraw:size="20.0"
            latexdraw:dotShape="*" latexdraw:position="640.0 660.0">
            <path
                d="M 649.2307692307692 660.0 C 649.2307692307692 665.0980130753611 645.0980130753611 669.2307692307692 640.0 669.2307692307692 C 634.9019869246388 669.2307692307692 630.7692307692307 665.0980130753611 630.7692307692307 660.0 C 630.7692307692307 654.9019869246388 634.9019869246388 650.7692307692307 640.0 650.7692307692307 C 645.0980130753611 650.7692307692307 649.2307692307692 654.9019869246388 649.2307692307692 660.0 z "
                fill="black" stroke-linecap="square"
                stroke-linejoin="butt" stroke-width="1.25"
                stroke-miterlimit="10.0" stroke-dashoffset="0.0" stroke="black"/>
        </g>
        <g latexdraw:type="text" id="id964746280" fill="black" latexdraw:position="bl">
            <text x="620.0" y="700.0">0, 4</text>
        </g>
        <g latexdraw:type="joinedLines" id="id755016885">
            <polyline points="680.0,580.0 640.0,660.0 "
                stroke-width="2.0" stroke="black" latexdraw:rotationAngle="0.0"/>
        </g>
        <g latexdraw:type="dot" id="id1123393794" latexdraw:size="20.0"
            latexdraw:dotShape="*" latexdraw:position="460.0 420.0">
            <path
                d="M 469.2307692307692 420.0 C 469.2307692307692 425.09801307536117 465.09801307536117 429.2307692307692 460.0 429.2307692307692 C 454.90198692463883 429.2307692307692 450.7692307692308 425.09801307536117 450.7692307692308 420.0 C 450.7692307692308 414.90198692463883 454.90198692463883 410.7692307692308 460.0 410.7692307692308 C 465.09801307536117 410.7692307692308 469.2307692307692 414.90198692463883 469.2307692307692 420.0 z "
                fill="black" stroke-linecap="square"
                stroke-linejoin="butt" stroke-width="1.25"
                stroke-miterlimit="10.0" stroke-dashoffset="0.0" stroke="black"/>
        </g>
        <g latexdraw:type="dot" id="id1428583140" latexdraw:size="20.0"
            latexdraw:dotShape="*" latexdraw:position="520.0 500.0">
            <path
                d="M 529.2307692307693 500.0 C 529.2307692307693 505.09801307536117 525.0980130753612 509.2307692307692 520.0 509.2307692307692 C 514.9019869246388 509.2307692307692 510.7692307692308 505.09801307536117 510.7692307692308 500.0 C 510.7692307692308 494.90198692463883 514.9019869246388 490.7692307692308 520.0 490.7692307692308 C 525.0980130753612 490.7692307692308 529.2307692307693 494.90198692463883 529.2307692307693 500.0 z "
                fill="black" stroke-linecap="square"
                stroke-linejoin="butt" stroke-width="1.25"
                stroke-miterlimit="10.0" stroke-dashoffset="0.0" stroke="black"/>
        </g>
        <g latexdraw:type="dot" id="id1515284722" latexdraw:size="20.0"
            latexdraw:dotShape="*" latexdraw:position="580.0 580.0">
            <path
                d="M 589.2307692307692 580.0 C 589.2307692307692 585.0980130753611 585.0980130753611 589.2307692307692 580.0 589.2307692307692 C 574.9019869246388 589.2307692307692 570.7692307692307 585.0980130753611 570.7692307692307 580.0 C 570.7692307692307 574.9019869246388 574.9019869246388 570.7692307692307 580.0 570.7692307692307 C 585.0980130753611 570.7692307692307 589.2307692307692 574.9019869246388 589.2307692307692 580.0 z "
                fill="black" stroke-linecap="square"
                stroke-linejoin="butt" stroke-width="1.25"
                stroke-miterlimit="10.0" stroke-dashoffset="0.0" stroke="black"/>
        </g>
        <g latexdraw:type="text" id="id928365115" fill="black" latexdraw:position="bl">
            <text x="560.0" y="620.0">0, 3</text>
        </g>
        <g latexdraw:type="joinedLines" id="id1712472795">
            <polyline points="520.0,500.0 500.0,500.0 "
                stroke-width="2.0" stroke="black" latexdraw:rotationAngle="0.0"/>
        </g>
        <g latexdraw:type="joinedLines" id="id1065141415">
            <polyline points="460.0,420.0 520.0,500.0 "
                stroke-width="2.0" stroke="black" latexdraw:rotationAngle="0.0"/>
        </g>
        <g latexdraw:type="joinedLines" id="id1368571884">
            <polyline points="520.0,500.0 580.0,580.0 "
                stroke-width="2.0" stroke="black" latexdraw:rotationAngle="0.0"/>
        </g>
        <g latexdraw:type="joinedLines" id="id27995779">
            <polyline points="460.0,420.0 700.0,340.0 "
                stroke-width="2.0" stroke="black" latexdraw:rotationAngle="0.0"/>
        </g>
        <g latexdraw:type="dot" id="id1912405395" latexdraw:size="20.0"
            latexdraw:dotShape="*" latexdraw:position="440.0 580.0">
            <path
                d="M 449.2307692307692 580.0 C 449.2307692307692 585.0980130753611 445.09801307536117 589.2307692307692 440.0 589.2307692307692 C 434.90198692463883 589.2307692307692 430.7692307692308 585.0980130753611 430.7692307692308 580.0 C 430.7692307692308 574.9019869246388 434.90198692463883 570.7692307692307 440.0 570.7692307692307 C 445.09801307536117 570.7692307692307 449.2307692307692 574.9019869246388 449.2307692307692 580.0 z "
                fill="black" stroke-linecap="square"
                stroke-linejoin="butt" stroke-width="1.25"
                stroke-miterlimit="10.0" stroke-dashoffset="0.0" stroke="black"/>
        </g>
        <g latexdraw:type="dot" id="id760402182" latexdraw:size="20.0"
            latexdraw:dotShape="*" latexdraw:position="400.0 660.0">
            <path
                d="M 409.2307692307692 660.0 C 409.2307692307692 665.0980130753611 405.09801307536117 669.2307692307692 400.0 669.2307692307692 C 394.90198692463883 669.2307692307692 390.7692307692308 665.0980130753611 390.7692307692308 660.0 C 390.7692307692308 654.9019869246388 394.90198692463883 650.7692307692307 400.0 650.7692307692307 C 405.09801307536117 650.7692307692307 409.2307692307692 654.9019869246388 409.2307692307692 660.0 z "
                fill="black" stroke-linecap="square"
                stroke-linejoin="butt" stroke-width="1.25"
                stroke-miterlimit="10.0" stroke-dashoffset="0.0" stroke="black"/>
        </g>
        <g latexdraw:type="joinedLines" id="id618050323">
            <polyline points="400.0,660.0 380.0,660.0 "
                stroke-width="2.0" stroke="black" latexdraw:rotationAngle="0.0"/>
        </g>
        <g latexdraw:type="dot" id="id1125025812" latexdraw:size="20.0"
            latexdraw:dotShape="*" latexdraw:position="420.0 740.0">
            <path
                d="M 429.2307692307692 740.0 C 429.2307692307692 745.0980130753611 425.09801307536117 749.2307692307692 420.0 749.2307692307692 C 414.90198692463883 749.2307692307692 410.7692307692308 745.0980130753611 410.7692307692308 740.0 C 410.7692307692308 734.9019869246388 414.90198692463883 730.7692307692307 420.0 730.7692307692307 C 425.09801307536117 730.7692307692307 429.2307692307692 734.9019869246388 429.2307692307692 740.0 z "
                fill="black" stroke-linecap="square"
                stroke-linejoin="butt" stroke-width="1.25"
                stroke-miterlimit="10.0" stroke-dashoffset="0.0" stroke="black"/>
        </g>
        <g latexdraw:type="circle" id="id1714460215">
            <circle cx="420.0" cy="740.0" r="19.0"
                latexdraw:borderPos="outer" stroke-width="2.0"
                stroke="black" fill="none"/>
        </g>
        <g latexdraw:type="text" id="id1556923295" fill="black" latexdraw:position="bl">
            <text x="400.0" y="780.0">3, 0</text>
        </g>
        <g latexdraw:type="joinedLines" id="id1043298079">
            <polyline points="400.0,660.0 420.0,740.0 "
                stroke-width="2.0" stroke="black" latexdraw:rotationAngle="0.0"/>
        </g>
        <g latexdraw:type="joinedLines" id="id1115193166">
            <polyline points="440.0,580.0 400.0,660.0 "
                stroke-width="2.0" stroke="black" latexdraw:rotationAngle="0.0"/>
        </g>
        <g latexdraw:type="joinedLines" id="id1027644215">
            <polyline points="520.0,500.0 520.0,500.0 440.0,580.0 "
                stroke-width="2.0" stroke="black" fill="none" latexdraw:rotationAngle="0.0"/>
        </g>
        <g latexdraw:type="dot" id="id1142730531" latexdraw:size="20.0"
            latexdraw:dotShape="*" latexdraw:position="340.0 740.0">
            <path
                d="M 349.2307692307692 740.0 C 349.2307692307692 745.0980130753611 345.09801307536117 749.2307692307692 340.0 749.2307692307692 C 334.90198692463883 749.2307692307692 330.7692307692308 745.0980130753611 330.7692307692308 740.0 C 330.7692307692308 734.9019869246388 334.90198692463883 730.7692307692307 340.0 730.7692307692307 C 345.09801307536117 730.7692307692307 349.2307692307692 734.9019869246388 349.2307692307692 740.0 z "
                fill="black" stroke-linecap="square"
                stroke-linejoin="butt" stroke-width="1.25"
                stroke-miterlimit="10.0" stroke-dashoffset="0.0" stroke="black"/>
        </g>
        <g latexdraw:type="circle" id="id296213413">
            <circle cx="340.0" cy="740.0" r="19.0"
                latexdraw:borderPos="outer" stroke-width="2.0"
                stroke="black" fill="none"/>
        </g>
        <g latexdraw:type="joinedLines" id="id202798540">
            <polyline points="400.0,660.0 340.0,739.9999999999999 "
                stroke-width="2.0" stroke="black" latexdraw:rotationAngle="0.0"/>
        </g>
        <g latexdraw:type="text" id="id143606127" fill="black" latexdraw:position="bl">
            <text x="320.0" y="780.0">4, 0</text>
        </g>
        <g latexdraw:type="dot" id="id931724711" latexdraw:size="20.0"
            latexdraw:dotShape="*" latexdraw:position="240.0 500.0">
            <path
                d="M 249.23076923076923 500.0 C 249.23076923076923 505.09801307536117 245.09801307536117 509.2307692307692 240.0 509.2307692307692 C 234.90198692463883 509.2307692307692 230.76923076923077 505.09801307536117 230.76923076923077 500.0 C 230.76923076923077 494.90198692463883 234.90198692463883 490.7692307692308 240.0 490.7692307692308 C 245.09801307536117 490.7692307692308 249.23076923076923 494.90198692463883 249.23076923076923 500.0 z "
                fill="black" stroke-linecap="square"
                stroke-linejoin="butt" stroke-width="1.25"
                stroke-miterlimit="10.0" stroke-dashoffset="0.0" stroke="black"/>
        </g>
        <g latexdraw:type="dot" id="id881582917" latexdraw:size="20.0"
            latexdraw:dotShape="*" latexdraw:position="160.0 580.0">
            <path
                d="M 169.23076923076923 580.0 C 169.23076923076923 585.0980130753611 165.09801307536117 589.2307692307692 160.0 589.2307692307692 C 154.90198692463883 589.2307692307692 150.76923076923077 585.0980130753611 150.76923076923077 580.0 C 150.76923076923077 574.9019869246388 154.90198692463883 570.7692307692307 160.0 570.7692307692307 C 165.09801307536117 570.7692307692307 169.23076923076923 574.9019869246388 169.23076923076923 580.0 z "
                fill="black" stroke-linecap="square"
                stroke-linejoin="butt" stroke-width="1.25"
                stroke-miterlimit="10.0" stroke-dashoffset="0.0" stroke="black"/>
        </g>
        <g latexdraw:type="circle" id="id921231423">
            <circle cx="160.0" cy="580.0" r="19.0"
                latexdraw:borderPos="outer" stroke-width="2.0"
                stroke="black" fill="none"/>
        </g>
        <g latexdraw:type="text" id="id234179756" fill="black" latexdraw:position="bl">
            <text x="140.0" y="620.0">4, 0</text>
        </g>
        <g latexdraw:type="joinedLines" id="id2087566389">
            <polyline points="240.0,500.0 220.0,500.0 "
                stroke-width="2.0" stroke="black" latexdraw:rotationAngle="0.0"/>
        </g>
        <g latexdraw:type="joinedLines" id="id1169223929">
            <polyline points="240.0,500.0 160.0,580.0 "
                stroke-width="2.0" stroke="black" latexdraw:rotationAngle="0.0"/>
        </g>
        <g latexdraw:type="joinedLines" id="id1931133118">
            <polyline points="460.0,420.0 240.0,500.0 "
                stroke-width="2.0" stroke="black" latexdraw:rotationAngle="0.0"/>
        </g>
        <g latexdraw:type="dot" id="id565858255" latexdraw:size="20.0"
            latexdraw:dotShape="*" latexdraw:position="280.0 580.0">
            <path
                d="M 289.2307692307692 580.0 C 289.2307692307692 585.0980130753611 285.09801307536117 589.2307692307692 280.0 589.2307692307692 C 274.90198692463883 589.2307692307692 270.7692307692308 585.0980130753611 270.7692307692308 580.0 C 270.7692307692308 574.9019869246388 274.90198692463883 570.7692307692307 280.0 570.7692307692307 C 285.09801307536117 570.7692307692307 289.2307692307692 574.9019869246388 289.2307692307692 580.0 z "
                fill="black" stroke-linecap="square"
                stroke-linejoin="butt" stroke-width="1.25"
                stroke-miterlimit="10.0" stroke-dashoffset="0.0" stroke="black"/>
        </g>
        <g latexdraw:type="dot" id="id1559881405" latexdraw:size="20.0"
            latexdraw:dotShape="*" latexdraw:position="300.0 660.0">
            <path
                d="M 309.2307692307692 660.0 C 309.2307692307692 665.0980130753611 305.09801307536117 669.2307692307692 300.0 669.2307692307692 C 294.90198692463883 669.2307692307692 290.7692307692308 665.0980130753611 290.7692307692308 660.0 C 290.7692307692308 654.9019869246388 294.90198692463883 650.7692307692307 300.0 650.7692307692307 C 305.09801307536117 650.7692307692307 309.2307692307692 654.9019869246388 309.2307692307692 660.0 z "
                fill="black" stroke-linecap="square"
                stroke-linejoin="butt" stroke-width="1.25"
                stroke-miterlimit="10.0" stroke-dashoffset="0.0" stroke="black"/>
        </g>
        <g latexdraw:type="circle" id="id922472032">
            <circle cx="300.0" cy="660.0" r="19.0"
                latexdraw:borderPos="outer" stroke-width="2.0"
                stroke="black" fill="none"/>
        </g>
        <g latexdraw:type="text" id="id1727118830" fill="black" latexdraw:position="bl">
            <text x="280.0" y="700.0">3, 0</text>
        </g>
        <g latexdraw:type="joinedLines" id="id236058526">
            <polyline points="280.0,580.0 300.0,660.0 "
                stroke-width="2.0" stroke="black" latexdraw:rotationAngle="0.0"/>
        </g>
        <g latexdraw:type="joinedLines" id="id1667715381">
            <polyline points="280.0,580.0 240.0,500.0 "
                stroke-width="2.0" stroke="black" latexdraw:rotationAngle="0.0"/>
        </g>
        <g latexdraw:type="dot" id="id163460593" latexdraw:size="20.0"
            latexdraw:dotShape="*" latexdraw:position="200.0 660.0">
            <path
                d="M 209.23076923076923 660.0 C 209.23076923076923 665.0980130753611 205.09801307536117 669.2307692307692 200.0 669.2307692307692 C 194.90198692463883 669.2307692307692 190.76923076923077 665.0980130753611 190.76923076923077 660.0 C 190.76923076923077 654.9019869246388 194.90198692463883 650.7692307692307 200.0 650.7692307692307 C 205.09801307536117 650.7692307692307 209.23076923076923 654.9019869246388 209.23076923076923 660.0 z "
                fill="black" stroke-linecap="square"
                stroke-linejoin="butt" stroke-width="1.25"
                stroke-miterlimit="10.0" stroke-dashoffset="0.0" stroke="black"/>
        </g>
        <g latexdraw:type="circle" id="id201766882">
            <circle cx="200.0" cy="660.0" r="19.0"
                latexdraw:borderPos="outer" stroke-width="2.0"
                stroke="black" fill="none"/>
        </g>
        <g latexdraw:type="text" id="id808428917" fill="black" latexdraw:position="bl">
            <text x="180.0" y="700.0">3, 0</text>
        </g>
        <g latexdraw:type="joinedLines" id="id154119477">
            <polyline points="280.0,580.0 200.0,660.0 "
                stroke-width="2.0" stroke="black" latexdraw:rotationAngle="0.0"/>
        </g>
        <g latexdraw:type="dot" id="id1006737887" latexdraw:size="20.0"
            latexdraw:dotShape="*" latexdraw:position="-60.0 260.0">
            <path
                d="M -50.76923076923077 260.0 C -50.76923076923077 265.09801307536117 -54.90198692463883 269.2307692307692 -60.0 269.2307692307692 C -65.09801307536117 269.2307692307692 -69.23076923076923 265.09801307536117 -69.23076923076923 260.0 C -69.23076923076923 254.90198692463883 -65.09801307536117 250.76923076923077 -60.0 250.76923076923077 C -54.90198692463883 250.76923076923077 -50.76923076923077 254.90198692463883 -50.76923076923077 260.0 z "
                fill="black" stroke-linecap="square"
                stroke-linejoin="butt" stroke-width="1.25"
                stroke-miterlimit="10.0" stroke-dashoffset="0.0" stroke="black"/>
        </g>
        <g latexdraw:type="joinedLines" id="id100321838">
            <polyline points="280.0,180.0 -60.0,260.0 "
                stroke-width="2.0" stroke="black" latexdraw:rotationAngle="0.0"/>
        </g>
        <g latexdraw:type="text" id="id1424228635" fill="black" latexdraw:position="bl">
            <text x="-100.0" y="240.0">5, 0</text>
        </g>
        <g latexdraw:type="circle" id="id119282195">
            <circle cx="-60.0" cy="260.0" r="19.0"
                latexdraw:borderPos="outer" stroke-width="2.0"
                stroke="black" fill="none"/>
        </g>
        <g latexdraw:type="dot" id="id1250613315" latexdraw:size="20.0"
            latexdraw:dotShape="*" latexdraw:position="0.0 340.0">
            <path
                d="M 9.23076923076923 340.0 C 9.23076923076923 345.09801307536117 5.09801307536117 349.2307692307692 0.0 349.2307692307692 C -5.09801307536117 349.2307692307692 -9.23076923076923 345.09801307536117 -9.23076923076923 340.0 C -9.23076923076923 334.90198692463883 -5.09801307536117 330.7692307692308 0.0 330.7692307692308 C 5.09801307536117 330.7692307692308 9.23076923076923 334.90198692463883 9.23076923076923 340.0 z "
                fill="black" stroke-linecap="square"
                stroke-linejoin="butt" stroke-width="1.25"
                stroke-miterlimit="10.0" stroke-dashoffset="0.0" stroke="black"/>
        </g>
        <g latexdraw:type="circle" id="id1496952195">
            <circle cx="0.0" cy="340.0" r="19.0"
                latexdraw:borderPos="outer" stroke-width="2.0"
                stroke="black" fill="none"/>
        </g>
        <g latexdraw:type="text" id="id1162921871" fill="black" latexdraw:position="bl">
            <text x="-20.0" y="380.0">4, 0</text>
        </g>
        <g latexdraw:type="joinedLines" id="id1368469267">
            <polyline points="460.0,260.0 0.0,340.0 " stroke-width="2.0"
                stroke="black" latexdraw:rotationAngle="0.0"/>
        </g>
        <g latexdraw:type="rhombus" id="id1774837405" latexdraw:points="700.0 640.0 740.0 640.0 700.0 680.0 740.0 680.0">
            <polygon
                points="720.0,641.4142135623731 738.5857864376269,660.0 720.0,678.5857864376269 701.4142135623731,660.0"
                latexdraw:borderPos="outer" stroke-width="2.0"
                stroke="black" fill="none"/>
        </g>
        <g latexdraw:type="rhombus" id="id1926712188" latexdraw:points="620.0 640.0 660.0 640.0 620.0 680.0 660.0 680.0">
            <polygon
                points="640.0,641.4142135623731 658.5857864376269,660.0 640.0,678.5857864376269 621.4142135623731,660.0"
                latexdraw:borderPos="outer" stroke-width="2.0"
                stroke="black" fill="none"/>
        </g>
        <g latexdraw:type="rhombus" id="id374549650" latexdraw:points="560.0 560.0 600.0 560.0 560.0 600.0 600.0 600.0">
            <polygon
                points="580.0,561.4142135623731 598.5857864376269,580.0 580.0,598.5857864376269 561.4142135623731,580.0"
                latexdraw:borderPos="outer" stroke-width="2.0"
                stroke="black" fill="none"/>
        </g>
        <g latexdraw:type="text" id="id1012314754" fill="black" latexdraw:position="bl">
            <text x="463.15789473684214" y="251.57894736842107">\LARGE\textbf{R}</text>
        </g>
        <g latexdraw:type="ellipse" id="id1193769408">
            <ellipse cx="515.2631578947369" cy="557.8947368421052"
                rx="410.05263157894734" ry="260.05263157894734"
                latexdraw:borderPos="outer" stroke-width="2.0"
                stroke="#01b93b" fill="none"/>
        </g>
    </g>
    <defs/>
    <metadata>
        <latexdraw:metadata>
            <latexdraw:latexIncludes/>
            <latexdraw:displayXScale>true</latexdraw:displayXScale>
            <latexdraw:displayYScale>true</latexdraw:displayYScale>
            <latexdraw:unit>CM</latexdraw:unit>
            <latexdraw:zoom>0.95</latexdraw:zoom>
            <latexdraw:magneticGridStyle>CUSTOMISED</latexdraw:magneticGridStyle>
            <latexdraw:gridGap>20</latexdraw:gridGap>
            <latexdraw:magneticGrid>true</latexdraw:magneticGrid>
            <latexdraw:version>3.3.8</latexdraw:version>
            <latexdraw:size>
                <latexdraw:width>1861</latexdraw:width>
                <latexdraw:height>1056</latexdraw:height>
            </latexdraw:size>
            <latexdraw:position>
                <latexdraw:x>59.0</latexdraw:x>
                <latexdraw:y>24.0</latexdraw:y>
            </latexdraw:position>
        </latexdraw:metadata>
    </metadata>
</svg>
